<svg xmlns="http://www.w3.org/2000/svg" viewBox="0 0 128 128" role="img" aria-labelledby="title desc">
  <title id="title">AQUA-R-WEB</title>
  <desc id="desc">Monogramme W encadré par deux chevrons de code émeraude</desc>
  <defs>
    <linearGradient id="bg" x1="18" y1="10" x2="112" y2="122" gradientUnits="userSpaceOnUse">
      <stop stop-color="#0B3A2C"/>
      <stop offset="1" stop-color="#04140F"/>
    </linearGradient>
    <linearGradient id="emerald" x1="20" y1="26" x2="108" y2="102" gradientUnits="userSpaceOnUse">
      <stop stop-color="#5AFFC8"/>
      <stop offset="0.48" stop-color="#10E0A0"/>
      <stop offset="1" stop-color="#0BA77A"/>
    </linearGradient>
    <filter id="glow" x="-30%" y="-30%" width="160%" height="160%">
      <feGaussianBlur stdDeviation="2.5" result="blur"/>
      <feMerge><feMergeNode in="blur"/><feMergeNode in="SourceGraphic"/></feMerge>
    </filter>
  </defs>
  <rect x="5" y="5" width="118" height="118" rx="31" fill="url(#bg)"/>
  <rect x="6" y="6" width="116" height="116" rx="30" fill="none" stroke="#10E0A0" stroke-width="2" opacity=".45"/>
  <path d="M52 31 22 61l30 30 9-10-20-20 20-20-9-10Z" fill="url(#emerald)" filter="url(#glow)"/>
  <path d="m76 31 30 30-30 30-9-10 20-20-20-20 9-10Z" fill="url(#emerald)" filter="url(#glow)"/>
  <path d="M47 46h12l5 25 6-17h8l6-8h12L82 82H70l-6-15-6 15H46L37 46h10Z" fill="#F1FBF7"/>
  <rect x="101" y="19" width="8" height="8" rx="2.5" fill="#F5A623"/>
</svg>
